{"title":"Fifty Shades of Grey 2015 NEWSOURCE HDTS MP4 MURD3R","uid":11703331,"size":533224975,"categoryP":"video","categoryS":"movies","magnet":"?xt=urn:btih:f69b3f619d5dee7e7252e776652fd8831ee5b68d&amp;dn=Fifty+Shades+of+Grey+2015+NEWSOURCE+HDTS+MP4+MURD3R&amp;tr=udp%3A%2F%2Ftracker.openbittorrent.com%3A80&amp;tr=udp%3A%2F%2Fopen.demonii.com%3A1337&amp;tr=udp%3A%2F%2Ftracker.coppersurfer.tk%3A6969&amp;tr=udp%3A%2F%2Fexodus.desync.com%3A6969","seeders":73,"leechers":6,"uploader":"makintos13","files":9,"time":1424008285,"description":"Fifty Shades of Grey 2015 NEWSOURCE HDTS MP4 MURD3R\n\n\nScreens:\n\n &lt;a href=&quot;\nhttp://imgsleek.com/img-54e0960223eea.html&quot; rel=&quot;nofollow&quot; target=&quot;_NEW&quot;&gt;\nhttp://imgsleek.com/img-54e0960223eea.html&lt;/a&gt;\n &lt;a href=&quot;\nhttp://imgsleek.com/img-54e0962dbc5a2.html&quot; rel=&quot;nofollow&quot; target=&quot;_NEW&quot;&gt;\nhttp://imgsleek.com/img-54e0962dbc5a2.html&lt;/a&gt;\n &lt;a href=&quot;\nhttp://imgsleek.com/img-54e0963ff39ec.html&quot; rel=&quot;nofollow&quot; target=&quot;_NEW&quot;&gt;\nhttp://imgsleek.com/img-54e0963ff39ec.html&lt;/a&gt;\n\n\nAUDIO: SPANISH \n\n\nGeneral\n\nComplete name : Fifty Shades of Grey 2015 NEWSOURCEHDTS MP4 MURD3R.mp4\nFormat : MPEG-4\nFormat profile : Base Media\nCodec ID : isom\nFile size : 507 MiB\nDuration : 1h 47mn\nOverall bit rate : 661 Kbps\nWriting application : Lavf54.63.104\n\nVideo\nID : 1\nFormat : AVC\nFormat/Info : Advanced Video Codec\nFormat profile : &lt;a class=&quot;__cf_email__&quot; href=&quot;/cdn-cgi/l/email-protection&quot; data-cfemail=&quot;87cfeee0efc7cbb4a9b7&quot;&gt;[email&amp;#160;protected]&lt;/a&gt;&lt;script cf-hash='f9e31' type=&quot;text/javascript&quot;&gt;\n/* &lt;![CDATA[ */!function(){try{var t=&quot;currentScript&quot;in document?document.currentScript:function(){for(var t=document.getElementsByTagName(&quot;script&quot;),e=t.length;e--;)if(t[e].getAttribute(&quot;cf-hash&quot;))return t[e]}();if(t&amp;&amp;t.previousSibling){var e,r,n,i,c=t.previousSibling,a=c.getAttribute(&quot;data-cfemail&quot;);if(a){for(e=&quot;&quot;,r=parseInt(a.substr(0,2),16),n=2;a.length-n;n+=2)i=parseInt(a.substr(n,2),16)^r,e+=String.fromCharCode(i);e=document.createTextNode(e),c.parentNode.replaceChild(e,c)}}}catch(u){}}();/* ]]&gt; */&lt;/script&gt;\nFormat settings, CABAC : Yes\nFormat settings, ReFrames : 4 frames\nCodec ID : avc1\nCodec ID/Info : Advanced Video Coding\nDuration : 1h 47mn\nBit rate : 460 Kbps\nWidth : 704 pixels\nHeight : 360 pixels\nDisplay aspect ratio : 1.956\nFrame rate mode : Variable\nFrame rate : 29.970 fps\nColor space : YUV\nChroma subsampling : 4:2:0\nBit depth : 8 bits\nScan type : Progressive\nBits/(Pixel*Frame) : 0.061\nStream size : 351 MiB (69%)\nWriting library : x264 core\n\nAudio\nID : 2\nFormat : AAC\nFormat/Info : Advanced Audio Codec\nFormat profile : LC\nCodec ID : 40\nDuration : 1h 47mn\nBit rate mode : Constant\nBit rate : 192 Kbps\nChannel(s) : 2 channels\nChannel positions : Front: L R\nSampling rate : 44.1 KHz\nCompression mode : Lossy\nStream size : 147 MiB (29%)","torrent":{"xt":"urn:btih:f69b3f619d5dee7e7252e776652fd8831ee5b68d","amp;dn":"Fifty+Shades+of+Grey+2015+NEWSOURCE+HDTS+MP4+MURD3R","amp;tr":["udp%3A%2F%2Ftracker.openbittorrent.com%3A80","udp%3A%2F%2Fopen.demonii.com%3A1337","udp%3A%2F%2Ftracker.coppersurfer.tk%3A6969","udp%3A%2F%2Fexodus.desync.com%3A6969"],"infoHash":"f69b3f619d5dee7e7252e776652fd8831ee5b68d","infoHashBuffer":{"type":"Buffer","data":[246,155,63,97,157,93,238,126,114,82,231,118,101,47,216,131,30,229,182,141]},"announce":[],"urlList":[]}}